<svg width="55" height="41" viewBox="0 0 55 41" fill="none" xmlns="http://www.w3.org/2000/svg">
<path d="M14.2222 20.7778H40.5556C41.1079 20.7778 41.5556 21.2255 41.5556 21.7778V38C41.5556 38.5523 41.1079 39 40.5556 39H14.2222C13.6699 39 13.2222 38.5523 13.2222 38V21.7778C13.2222 21.2255 13.6699 20.7778 14.2222 20.7778Z" stroke="black" stroke-width="2"/>
<path d="M38.2222 20.0938V16C38.2222 14.8954 37.3268 14 36.2222 14H7C5.89543 14 5 14.8954 5 16V33.6667C5 34.7712 5.89543 35.6667 7 35.6667H12.3089" stroke="black" stroke-width="2"/>
<path d="M49.5959 4.54838C49.6728 4.37383 49.685 3.93218 49.224 3.72232C48.9555 3.60007 48.6394 3.64276 48.4558 3.84927L42.6183 10.4041C42.58 10.447 42.55 10.4941 42.5281 10.544C42.4335 10.7131 42.4409 11.1627 42.9019 11.3725C43.1693 11.4942 43.4844 11.4494 43.6677 11.2437L49.5052 4.68888C49.544 4.64543 49.574 4.59823 49.5959 4.54838Z" fill="black"/>
<path d="M53.6928 14.8017C53.8667 14.7234 54.1667 14.3928 53.9505 13.8964C53.8246 13.6072 53.5537 13.4104 53.2767 13.4357L44.4784 14.2315C44.4208 14.2366 44.3667 14.2511 44.3171 14.2734C44.1331 14.3348 43.843 14.6856 44.0592 15.182C44.1846 15.4699 44.4562 15.6645 44.7324 15.6396L53.5307 14.8438C53.589 14.8385 53.6431 14.8241 53.6928 14.8017Z" fill="black"/>
<path d="M39.1036 1.54021C39.0503 1.36786 38.7738 1.04811 38.2798 1.19434C37.992 1.27951 37.7741 1.51149 37.7653 1.77461L37.4761 10.1319C37.4742 10.1867 37.4814 10.2391 37.4966 10.2883C37.5328 10.4682 37.8296 10.781 38.3236 10.6348C38.6102 10.5499 38.8259 10.317 38.835 10.0547L39.1242 1.69735C39.1262 1.64193 39.1189 1.58943 39.1036 1.54021Z" fill="black"/>
</svg>
