<svg width="128" height="128" viewBox="0 0 128 128" fill="none" xmlns="http://www.w3.org/2000/svg">
<path d="M82.09 85.0237V73.6788L91.25 68.3956V79.7315L82.09 85.0237Z" fill="#FFFFC8" stroke="black"/>
<path d="M63.7499 52.263L64 52.4074L64.2501 52.263L81.2099 42.4674L91.25 48.2686V58.7614L73.9999 68.7271L73.75 68.8714V69.16V89.8414L64 95.4726L54.25 89.8414V69.16V68.8714L54.0001 68.7271L36.75 58.7614V48.2686L46.7901 42.4674L63.7499 52.263Z" fill="#D9B3E3" stroke="black"/>
<path d="M99.59 43.74V43.4514L99.3402 43.3071L89.55 37.6503L98.8099 32.3073L108.85 38.1085V48.6012L99.59 53.9442V43.74Z" fill="#BCDAFF" stroke="black"/>
<path d="M28.6599 43.3071L28.41 43.4514V43.74V53.9442L19.15 48.6012V38.1085L29.1902 32.3073L38.4501 37.6503L28.6599 43.3071Z" fill="#D9B3E3" stroke="black"/>
<path d="M36.75 68.3956L45.91 73.6788V85.0237L36.75 79.7315V68.3956Z" fill="#FFFFC8" stroke="black"/>
<path d="M63.7499 104.963L64 105.107L64.2501 104.963L73.75 99.4762V110.161L64 115.793L54.25 110.161V99.4762L63.7499 104.963Z" fill="#D9B3E3" stroke="black"/>
<path d="M55.1298 37.65L64 32.5274L72.8702 37.65L64 42.7726L55.1298 37.65Z" fill="#FFFFC8" stroke="black"/>
<path d="M99.3401 84.6929L99.59 84.5486V84.26V63.5788L108.85 58.2358V89.8913L82.09 105.344V94.6586L99.3401 84.6929Z" fill="#BCDAFF" stroke="black"/>
<path d="M28.41 84.26V84.5486L28.6599 84.6929L45.91 94.6586V105.344L19.15 89.8913V58.2358L28.41 63.5788V84.26Z" fill="#D9B3E3" stroke="black"/>
<path d="M64.2499 23.0469L64 22.9027L63.7501 23.0469L46.79 32.8327L37.5303 27.4899L64 12.2074L90.4698 27.4899L81.21 32.8327L64.2499 23.0469Z" fill="#BCDAFF" stroke="black"/>
</svg>
