<svg width="64" height="64" viewBox="0 0 64 64" fill="none" xmlns="http://www.w3.org/2000/svg">
<path d="M20.5 22.1H10.6C9.70001 22.1 9 21.4 9 20.5V10.6C9 9.70001 9.70001 9 10.6 9H20.5C21.4 9 22.1 9.70001 22.1 10.6V20.5C22.1 21.4 21.4 22.1 20.5 22.1Z" fill="black"/>
<path d="M36.9 22.1H27C26.1 22.1 25.4 21.4 25.4 20.5V10.6C25.4 9.70001 26.1 9 27 9H36.9C37.8 9 38.5 9.70001 38.5 10.6V20.5C38.6 21.4 37.8 22.1 36.9 22.1Z" fill="black"/>
<path d="M53.4 22.1H43.5C42.6 22.1 41.9 21.4 41.9 20.5V10.6C41.9 9.70001 42.6 9 43.5 9H53.4C54.3 9 55 9.70001 55 10.6V20.5C55 21.4 54.3 22.1 53.4 22.1Z" fill="#BCDAFF"/>
<path d="M20.5 38.6H10.6C9.70001 38.6 9 37.9 9 37V27.1C9 26.2 9.70001 25.5 10.6 25.5H20.5C21.4 25.5 22.1 26.2 22.1 27.1V37C22.1 37.8 21.4 38.6 20.5 38.6Z" fill="black"/>
<path d="M36.9 38.6H27C26.1 38.6 25.4 37.9 25.4 37V27.1C25.4 26.2 26.1 25.5 27 25.5H36.9C37.8 25.5 38.5 26.2 38.5 27.1V37C38.6 37.8 37.8 38.6 36.9 38.6Z" fill="#D9B3E3"/>
<path d="M53.4 38.6H43.5C42.6 38.6 41.9 37.9 41.9 37V27.1C41.9 26.2 42.6 25.5 43.5 25.5H53.4C54.3 25.5 55 26.2 55 27.1V37C55 37.8 54.3 38.6 53.4 38.6Z" fill="black"/>
<path d="M20.5 55H10.6C9.70001 55 9 54.3 9 53.4V43.5C9 42.6 9.70001 41.9 10.6 41.9H20.5C21.4 41.9 22.1 42.6 22.1 43.5V53.4C22.1 54.3 21.4 55 20.5 55Z" fill="#BCDAFF"/>
<path d="M36.9 55H27C26.1 55 25.4 54.3 25.4 53.4V43.5C25.4 42.6 26.1 41.9 27 41.9H36.9C37.8 41.9 38.5 42.6 38.5 43.5V53.4C38.6 54.3 37.8 55 36.9 55Z" fill="black"/>
<path d="M53.4 55H43.5C42.6 55 41.9 54.3 41.9 53.4V43.5C41.9 42.6 42.6 41.9 43.5 41.9H53.4C54.3 41.9 55 42.6 55 43.5V53.4C55 54.3 54.3 55 53.4 55Z" fill="#D9B3E3"/>
</svg>
