<svg width="141" height="115" viewBox="0 0 141 115" fill="none" xmlns="http://www.w3.org/2000/svg">
<path d="M75.5 35.5L66 40.5L65.5 34L64.5 30.5L63.5 29.5L48.5 20.5L47 20H45.5H44.5L43.5 20.5L29.5 28.5L28 30L27 31.5L26.5 33.5V50V52L27.5 53L28.5 54L43.5 62.5L46 63L48.5 62.5L91 38L93 37H94.5H95.5L121.5 52L122.5 53.5L123 55V84L122.5 85.5L122 86.5L121.5 87L112.5 92L95.5 102H94.5H93.5L92.5 101.5L67 87L66 85.5L65.5 84.5V84V82.7278V74.5L66 73.5L73 69L74 68.5L74.5 69V69.5V74.5V77L75 79L75.5 80L76 81L92 90.5L93.5 91H94.5L96 90.5L111 82L112.5 80.5L113.5 78.5V60.5L113 59L112.5 58L111.5 57L99.5 50L97 48.5L94.5 48H93L91.5 48.5L87 51L69.5 61L48 73.5L46 74H44.5L31.5 66.5L18.5 59L17.5 58L17 57V55.5V27L17.5 25.5L18 24.5L18.5 24L29.5 18L43.5 9.5L46 9H47.5L49.5 10L72.5 23.5L74 25L74.5 26.5L75.5 35.5Z" fill="#D9B3E3" stroke="black"/>
</svg>
