<?xml version="1.0" ?><svg data-name="Layer 1" id="Layer_1" viewBox="0 0 128 128" xmlns="http://www.w3.org/2000/svg"><title/><path d="M85.52,45.58l-43,24.85a5.24,5.24,0,0,1-5.2,0L23.55,62.5A5.2,5.2,0,0,1,21,58V42.14a5.2,5.2,0,0,1,2.6-4.5l13.73-7.93a5.24,5.24,0,0,1,5.2,0l13.73,7.93a5.2,5.2,0,0,1,2.6,4.5v7.61a1.3,1.3,0,0,0,1.94,1.13l7.15-4.13a2.59,2.59,0,0,0,1.29-2.25V36.14a5.21,5.21,0,0,0-2.59-4.5L42.48,17.72a5.19,5.19,0,0,0-5.2,0L13.16,31.64a5.2,5.2,0,0,0-2.6,4.5V64a5.2,5.2,0,0,0,2.6,4.5L37.28,82.42a5.19,5.19,0,0,0,5.2,0l43-24.85a5.24,5.24,0,0,1,5.2,0l13.73,7.93a5.2,5.2,0,0,1,2.6,4.5V85.86a5.2,5.2,0,0,1-2.6,4.5L90.72,98.29a5.24,5.24,0,0,1-5.2,0L71.79,90.36a5.2,5.2,0,0,1-2.6-4.5V78.24a1.29,1.29,0,0,0-1.94-1.12L60.1,81.24a2.6,2.6,0,0,0-1.29,2.25v8.37a5.21,5.21,0,0,0,2.59,4.5l24.12,13.92a5.19,5.19,0,0,0,5.2,0l24.12-13.92a5.2,5.2,0,0,0,2.6-4.5V64a5.2,5.2,0,0,0-2.6-4.5L90.72,45.58A5.19,5.19,0,0,0,85.52,45.58Z"/></svg>