<svg width="32" height="32" viewBox="0 0 32 32" fill="none" xmlns="http://www.w3.org/2000/svg">
<g clip-path="url(#clip0_18_11)">
<path d="M17.9 9.9C13.3 10.8 11.9 12.2 11 16.8C10.1 12.2 8.69998 10.8 4.09998 9.9C8.69998 9 10.1 7.6 11 3C11.9 7.6 13.3 9 17.9 9.9Z" stroke="white" stroke-width="2" stroke-miterlimit="10" stroke-linecap="round" stroke-linejoin="round"/>
<path d="M21.8 25C18.6 25.6 17.7 26.5999 17 29.7999C16.4 26.5999 15.4 25.7 12.2 25C15.4 24.4 16.3 23.4 17 20.2C17.6 23.4 18.6 24.4 21.8 25Z" stroke="white" stroke-width="2" stroke-miterlimit="10" stroke-linecap="round" stroke-linejoin="round"/>
<path d="M29 15C26.4 15.5 25.6 16.3 25.1 18.9C24.6 16.3 23.8 15.5 21.2 15C23.8 14.5 24.6 13.7 25.1 11.1C25.6 13.7 26.4 14.5 29 15Z" stroke="white" stroke-width="2" stroke-miterlimit="10" stroke-linecap="round" stroke-linejoin="round"/>
</g>
<defs>
<clipPath id="clip0_18_11">
<rect width="32" height="32" fill="white"/>
</clipPath>
</defs>
</svg>
