<svg width="32" height="32" viewBox="0 0 32 32" fill="none" xmlns="http://www.w3.org/2000/svg">
<path d="M12.8312 30.6297C12.6722 30.6297 12.5197 30.5665 12.4072 30.454C12.2948 30.3416 12.2316 30.1891 12.2316 30.0301C12.2316 21.449 10.2589 19.4754 1.67786 19.4754C1.51883 19.4754 1.36632 19.4122 1.25387 19.2998C1.14142 19.1873 1.07825 19.0348 1.07825 18.8758C1.07825 18.7168 1.14142 18.5643 1.25387 18.4518C1.36632 18.3394 1.51883 18.2762 1.67786 18.2762C10.2589 18.2762 12.2316 16.3035 12.2316 7.72247C12.2316 7.56345 12.2947 7.41093 12.4072 7.29849C12.5196 7.18604 12.6722 7.12286 12.8312 7.12286C12.9902 7.12286 13.1427 7.18604 13.2552 7.29849C13.3676 7.41093 13.4308 7.56345 13.4308 7.72247C13.4308 16.3035 15.4034 18.2762 23.9845 18.2762C24.1435 18.2762 24.296 18.3394 24.4085 18.4518C24.5209 18.5643 24.5841 18.7168 24.5841 18.8758C24.5841 19.0348 24.5209 19.1873 24.4085 19.2998C24.296 19.4122 24.1435 19.4754 23.9845 19.4754C15.4034 19.4754 13.4308 21.449 13.4308 30.0301C13.4307 30.1891 13.3676 30.3416 13.2551 30.454C13.1427 30.5665 12.9902 30.6297 12.8312 30.6297ZM7.6427 18.8758C8.92017 19.1385 10.0926 19.77 11.0148 20.6922C11.937 21.6144 12.5685 22.7868 12.8312 24.0643C13.0939 22.7868 13.7254 21.6144 14.6476 20.6922C15.5698 19.77 16.7422 19.1385 18.0196 18.8758C16.7422 18.6131 15.5698 17.9816 14.6476 17.0594C13.7254 16.1372 13.0939 14.9648 12.8312 13.6873C12.5685 14.9648 11.937 16.1372 11.0148 17.0594C10.0926 17.9816 8.92017 18.6131 7.6427 18.8758Z" fill="white"/>
<path d="M30.3224 6.97635C25.9591 6.97635 25.0763 6.09354 25.0763 1.73026C25.0763 1.57123 25.0131 1.41872 24.9007 1.30627C24.7882 1.19382 24.6357 1.13065 24.4767 1.13065C24.3177 1.13065 24.1651 1.19382 24.0527 1.30627C23.9402 1.41872 23.8771 1.57123 23.8771 1.73026C23.8771 6.09354 22.9943 6.97635 18.63 6.97635C18.471 6.97635 18.3185 7.03952 18.206 7.15197C18.0936 7.26442 18.0304 7.41693 18.0304 7.57596C18.0304 7.73498 18.0936 7.8875 18.206 7.99994C18.3185 8.11239 18.471 8.17557 18.63 8.17557C22.9943 8.17557 23.8771 9.05839 23.8771 13.4217C23.8771 13.5807 23.9402 13.7332 24.0527 13.8457C24.1651 13.9581 24.3177 14.0213 24.4767 14.0213C24.6357 14.0213 24.7882 13.9581 24.9007 13.8457C25.0131 13.7332 25.0763 13.5807 25.0763 13.4217C25.0763 9.05839 25.9591 8.17557 30.3224 8.17557C30.4814 8.17557 30.6339 8.11239 30.7464 7.99994C30.8588 7.8875 30.922 7.73498 30.922 7.57596C30.922 7.41693 30.8588 7.26442 30.7464 7.15197C30.6339 7.03952 30.4814 6.97635 30.3224 6.97635V6.97635Z" fill="white"/>
</svg>
