<?xml version="1.0" ?><svg fill="none" height="24" viewBox="0 0 24 24" width="24" xmlns="http://www.w3.org/2000/svg"><path clip-rule="evenodd" d="M8 9C8 8.44772 8.44772 8 9 8H15C15.5523 8 16 8.44772 16 9V15C16 15.5523 15.5523 16 15 16H9C8.44772 16 8 15.5523 8 15V9ZM10 10V14H14V10H10Z" fill="black" fill-rule="evenodd"/><path clip-rule="evenodd" d="M14 2C14 1.44772 14.4477 1 15 1H22C22.5523 1 23 1.44772 23 2V9C23 9.55228 22.5523 10 22 10H15C14.4477 10 14 9.55228 14 9V2ZM16 3V8H21V3H16Z" fill="black" fill-rule="evenodd"/><path clip-rule="evenodd" d="M14 15C14 14.4477 14.4477 14 15 14H22C22.5523 14 23 14.4477 23 15V22C23 22.5523 22.5523 23 22 23H15C14.4477 23 14 22.5523 14 22V15ZM16 16V21H21V16H16Z" fill="black" fill-rule="evenodd"/><path clip-rule="evenodd" d="M1 2C1 1.44772 1.44772 1 2 1H9C9.55228 1 10 1.44772 10 2V9C10 9.55228 9.55228 10 9 10H2C1.44772 10 1 9.55228 1 9V2ZM3 3V8H8V3H3Z" fill="black" fill-rule="evenodd"/><path clip-rule="evenodd" d="M1 15C1 14.4477 1.44772 14 2 14H9C9.55228 14 10 14.4477 10 15V22C10 22.5523 9.55228 23 9 23H2C1.44772 23 1 22.5523 1 22V15ZM3 16V21H8V16H3Z" fill="black" fill-rule="evenodd"/></svg>